{
	"asset":{
		"generator":"Khronos glTF Blender I/O v5.2.40",
		"version":"2.0"
	},
	"extensionsUsed":[
		"KHR_materials_anisotropy"
	],
	"scene":0,
	"scenes":[
		{
			"name":"Scene",
			"nodes":[
				0,
				1,
				2,
				3,
				4,
				5,
				6,
				7,
				8
			]
		}
	],
	"nodes":[
		{
			"mesh":0,
			"name":"STL-01_almi",
			"rotation":[
				0.7070850133895874,
				0,
				0,
				0.7071285247802734
			],
			"scale":[
				0.0010000000474974513,
				0.0010000000474974513,
				0.0010000000474974513
			]
		},
		{
			"mesh":1,
			"name":"STL-02_blue",
			"rotation":[
				0.7070850133895874,
				0,
				0,
				0.7071285247802734
			],
			"scale":[
				0.0010000000474974513,
				0.0010000000474974513,
				0.0010000000474974513
			]
		},
		{
			"mesh":2,
			"name":"STL-03_glass",
			"rotation":[
				0.7070850133895874,
				0,
				0,
				0.7071285247802734
			],
			"scale":[
				0.0010000000474974513,
				0.0010000000474974513,
				0.0010000000474974513
			]
		},
		{
			"mesh":3,
			"name":"STL-04_GrayD",
			"rotation":[
				0.7071068286895752,
				0,
				0,
				0.7071068286895752
			],
			"scale":[
				0.0010000000474974513,
				0.0010000000474974513,
				0.0010000000474974513
			]
		},
		{
			"mesh":4,
			"name":"STL-05_GrayR",
			"rotation":[
				0.7070850133895874,
				0,
				0,
				0.7071285247802734
			],
			"scale":[
				0.0010000000474974513,
				0.0010000000474974513,
				0.0010000000474974513
			]
		},
		{
			"mesh":5,
			"name":"STL-06_SHS-HL",
			"rotation":[
				0.7071068286895752,
				0,
				0,
				0.7071068286895752
			],
			"scale":[
				0.0010000000474974513,
				0.0010000000474974513,
				0.0010000000474974513
			]
		},
		{
			"mesh":6,
			"name":"STL-07_SUS-MG",
			"rotation":[
				0.7070850133895874,
				0,
				0,
				0.7071285247802734
			],
			"scale":[
				0.0010000000474974513,
				0.0010000000474974513,
				0.0010000000474974513
			]
		},
		{
			"mesh":7,
			"name":"STL-08_White",
			"rotation":[
				0.7070850133895874,
				0,
				0,
				0.7071285247802734
			],
			"scale":[
				0.0010000000474974513,
				0.0010000000474974513,
				0.0010000000474974513
			]
		},
		{
			"mesh":8,
			"name":"STL-09_Yellow",
			"rotation":[
				0.7070850133895874,
				0,
				0,
				0.7071285247802734
			],
			"scale":[
				0.0010000000474974513,
				0.0010000000474974513,
				0.0010000000474974513
			]
		}
	],
	"materials":[
		{
			"doubleSided":true,
			"name":"al",
			"pbrMetallicRoughness":{
				"baseColorFactor":[
					0.5225056409835815,
					0.5225056409835815,
					0.5225056409835815,
					1
				],
				"roughnessFactor":0.5
			}
		},
		{
			"doubleSided":true,
			"name":"blue",
			"pbrMetallicRoughness":{
				"baseColorFactor":[
					0.023171551525592804,
					0.03512856364250183,
					0.8000229597091675,
					1
				],
				"metallicFactor":0,
				"roughnessFactor":0.5
			}
		},
		{
			"doubleSided":true,
			"name":"glass",
			"pbrMetallicRoughness":{
				"baseColorFactor":[
					0.46293091773986816,
					0.6319329738616943,
					0.8000074625015259,
					1
				],
				"metallicFactor":0,
				"roughnessFactor":0
			}
		},
		{
			"doubleSided":true,
			"name":"grayD",
			"pbrMetallicRoughness":{
				"baseColorFactor":[
					0.03056575544178486,
					0.03056575544178486,
					0.03056575544178486,
					1
				],
				"metallicFactor":0,
				"roughnessFactor":0.5
			}
		},
		{
			"doubleSided":true,
			"name":"grayR",
			"pbrMetallicRoughness":{
				"baseColorFactor":[
					0.6544539332389832,
					0.6544539332389832,
					0.6544539332389832,
					1
				],
				"metallicFactor":0,
				"roughnessFactor":0.5
			}
		},
		{
			"doubleSided":true,
			"extensions":{
				"KHR_materials_anisotropy":{
					"anisotropyStrength":0.6000000238418579,
					"anisotropyRotation":1.5707963267948966
				}
			},
			"name":"sus-HL",
			"pbrMetallicRoughness":{
				"baseColorFactor":[
					0.5290201306343079,
					0.5290201306343079,
					0.5290201306343079,
					1
				],
				"roughnessFactor":0.3499999940395355
			}
		},
		{
			"doubleSided":true,
			"name":"sus-MG",
			"pbrMetallicRoughness":{
				"baseColorFactor":[
					0.730931282043457,
					0.730931282043457,
					0.730931282043457,
					1
				],
				"metallicFactor":0,
				"roughnessFactor":0.5
			}
		},
		{
			"doubleSided":true,
			"name":"white",
			"pbrMetallicRoughness":{
				"baseColorFactor":[
					0.800000011920929,
					0.800000011920929,
					0.800000011920929,
					1
				],
				"metallicFactor":0,
				"roughnessFactor":0.5
			}
		},
		{
			"doubleSided":true,
			"name":"yellow",
			"pbrMetallicRoughness":{
				"baseColorFactor":[
					0.8000074625015259,
					0.7095372080802917,
					0.018221857026219368,
					1
				],
				"metallicFactor":0,
				"roughnessFactor":0.5
			}
		}
	],
	"meshes":[
		{
			"name":"STL-01_almi",
			"primitives":[
				{
					"attributes":{
						"POSITION":0,
						"NORMAL":1
					},
					"indices":2,
					"material":0
				}
			]
		},
		{
			"name":"STL-02_blue",
			"primitives":[
				{
					"attributes":{
						"POSITION":3,
						"NORMAL":4
					},
					"indices":5,
					"material":1
				}
			]
		},
		{
			"name":"STL-03_glass",
			"primitives":[
				{
					"attributes":{
						"POSITION":6,
						"NORMAL":7
					},
					"indices":8,
					"material":2
				}
			]
		},
		{
			"name":"STL-04_GrayD",
			"primitives":[
				{
					"attributes":{
						"POSITION":9,
						"NORMAL":10
					},
					"indices":11,
					"material":3
				}
			]
		},
		{
			"name":"STL-05_GrayR",
			"primitives":[
				{
					"attributes":{
						"POSITION":12,
						"NORMAL":13
					},
					"indices":14,
					"material":4
				}
			]
		},
		{
			"name":"STL-06_SHS-HL",
			"primitives":[
				{
					"attributes":{
						"POSITION":15,
						"NORMAL":16
					},
					"indices":17,
					"material":5
				}
			]
		},
		{
			"name":"STL-07_SUS-MG",
			"primitives":[
				{
					"attributes":{
						"POSITION":18,
						"NORMAL":19
					},
					"indices":20,
					"material":6
				}
			]
		},
		{
			"name":"STL-08_White",
			"primitives":[
				{
					"attributes":{
						"POSITION":21,
						"NORMAL":22
					},
					"indices":23,
					"material":7
				}
			]
		},
		{
			"name":"STL-09_Yellow",
			"primitives":[
				{
					"attributes":{
						"POSITION":24,
						"NORMAL":25
					},
					"indices":26,
					"material":8
				}
			]
		}
	],
	"accessors":[
		{
			"bufferView":0,
			"componentType":5126,
			"count":102340,
			"max":[
				483.28363037109375,
				569.7672119140625,
				-50.02355194091797
			],
			"min":[
				-746.2163696289062,
				-382.4416809082031,
				-1329.0235595703125
			],
			"type":"VEC3"
		},
		{
			"bufferView":1,
			"componentType":5126,
			"count":102340,
			"type":"VEC3"
		},
		{
			"bufferView":2,
			"componentType":5125,
			"count":125232,
			"type":"SCALAR"
		},
		{
			"bufferView":3,
			"componentType":5126,
			"count":832,
			"max":[
				460.018310546875,
				335.4632568359375,
				-223.5098114013672
			],
			"min":[
				-463.981689453125,
				-159.33322143554688,
				-584.0098266601562
			],
			"type":"VEC3"
		},
		{
			"bufferView":4,
			"componentType":5126,
			"count":832,
			"type":"VEC3"
		},
		{
			"bufferView":5,
			"componentType":5123,
			"count":1284,
			"type":"SCALAR"
		},
		{
			"bufferView":6,
			"componentType":5126,
			"count":28984,
			"max":[
				419.0568542480469,
				40.85081481933594,
				-667.9721069335938
			],
			"min":[
				-309.5431213378906,
				-191.2631072998047,
				-1108.01171875
			],
			"type":"VEC3"
		},
		{
			"bufferView":7,
			"componentType":5126,
			"count":28984,
			"type":"VEC3"
		},
		{
			"bufferView":8,
			"componentType":5123,
			"count":31608,
			"type":"SCALAR"
		},
		{
			"bufferView":9,
			"componentType":5126,
			"count":17203,
			"max":[
				462.64190673828125,
				377.47381591796875,
				-0.023851966485381126
			],
			"min":[
				-524.8580932617188,
				-387.2696533203125,
				-1246.0238037109375
			],
			"type":"VEC3"
		},
		{
			"bufferView":10,
			"componentType":5126,
			"count":17203,
			"type":"VEC3"
		},
		{
			"bufferView":11,
			"componentType":5123,
			"count":28356,
			"type":"SCALAR"
		},
		{
			"bufferView":12,
			"componentType":5126,
			"count":700,
			"max":[
				235.77630615234375,
				241.82228088378906,
				-235.0085906982422
			],
			"min":[
				-523.7235717773438,
				-139.5492401123047,
				-1218.008544921875
			],
			"type":"VEC3"
		},
		{
			"bufferView":13,
			"componentType":5126,
			"count":700,
			"type":"VEC3"
		},
		{
			"bufferView":14,
			"componentType":5123,
			"count":1104,
			"type":"SCALAR"
		},
		{
			"bufferView":15,
			"componentType":5126,
			"count":7704,
			"max":[
				614.9666748046875,
				655.2547607421875,
				-48.523681640625
			],
			"min":[
				-517.3616943359375,
				-384.5155029296875,
				-1546.523681640625
			],
			"type":"VEC3"
		},
		{
			"bufferView":16,
			"componentType":5126,
			"count":7704,
			"type":"VEC3"
		},
		{
			"bufferView":17,
			"componentType":5123,
			"count":12756,
			"type":"SCALAR"
		},
		{
			"bufferView":18,
			"componentType":5126,
			"count":53158,
			"max":[
				558.9434814453125,
				354.07257080078125,
				-243.2861785888672
			],
			"min":[
				-573.2589111328125,
				-337.893310546875,
				-1584.5361328125
			],
			"type":"VEC3"
		},
		{
			"bufferView":19,
			"componentType":5126,
			"count":53158,
			"type":"VEC3"
		},
		{
			"bufferView":20,
			"componentType":5123,
			"count":61332,
			"type":"SCALAR"
		},
		{
			"bufferView":21,
			"componentType":5126,
			"count":11628,
			"max":[
				418.4447021484375,
				370.0791015625,
				-12.517855644226074
			],
			"min":[
				-409.5552978515625,
				-289.9208984375,
				-943.2178955078125
			],
			"type":"VEC3"
		},
		{
			"bufferView":22,
			"componentType":5126,
			"count":11628,
			"type":"VEC3"
		},
		{
			"bufferView":23,
			"componentType":5123,
			"count":18552,
			"type":"SCALAR"
		},
		{
			"bufferView":24,
			"componentType":5126,
			"count":650,
			"max":[
				336.38397216796875,
				334.1515808105469,
				-611.0009765625
			],
			"min":[
				-412.416015625,
				289.2593078613281,
				-632.2891845703125
			],
			"type":"VEC3"
		},
		{
			"bufferView":25,
			"componentType":5126,
			"count":650,
			"type":"VEC3"
		},
		{
			"bufferView":26,
			"componentType":5123,
			"count":864,
			"type":"SCALAR"
		}
	],
	"bufferViews":[
		{
			"buffer":0,
			"byteLength":1228080,
			"byteOffset":0,
			"target":34962
		},
		{
			"buffer":0,
			"byteLength":1228080,
			"byteOffset":1228080,
			"target":34962
		},
		{
			"buffer":0,
			"byteLength":500928,
			"byteOffset":2456160,
			"target":34963
		},
		{
			"buffer":0,
			"byteLength":9984,
			"byteOffset":2957088,
			"target":34962
		},
		{
			"buffer":0,
			"byteLength":9984,
			"byteOffset":2967072,
			"target":34962
		},
		{
			"buffer":0,
			"byteLength":2568,
			"byteOffset":2977056,
			"target":34963
		},
		{
			"buffer":0,
			"byteLength":347808,
			"byteOffset":2979624,
			"target":34962
		},
		{
			"buffer":0,
			"byteLength":347808,
			"byteOffset":3327432,
			"target":34962
		},
		{
			"buffer":0,
			"byteLength":63216,
			"byteOffset":3675240,
			"target":34963
		},
		{
			"buffer":0,
			"byteLength":206436,
			"byteOffset":3738456,
			"target":34962
		},
		{
			"buffer":0,
			"byteLength":206436,
			"byteOffset":3944892,
			"target":34962
		},
		{
			"buffer":0,
			"byteLength":56712,
			"byteOffset":4151328,
			"target":34963
		},
		{
			"buffer":0,
			"byteLength":8400,
			"byteOffset":4208040,
			"target":34962
		},
		{
			"buffer":0,
			"byteLength":8400,
			"byteOffset":4216440,
			"target":34962
		},
		{
			"buffer":0,
			"byteLength":2208,
			"byteOffset":4224840,
			"target":34963
		},
		{
			"buffer":0,
			"byteLength":92448,
			"byteOffset":4227048,
			"target":34962
		},
		{
			"buffer":0,
			"byteLength":92448,
			"byteOffset":4319496,
			"target":34962
		},
		{
			"buffer":0,
			"byteLength":25512,
			"byteOffset":4411944,
			"target":34963
		},
		{
			"buffer":0,
			"byteLength":637896,
			"byteOffset":4437456,
			"target":34962
		},
		{
			"buffer":0,
			"byteLength":637896,
			"byteOffset":5075352,
			"target":34962
		},
		{
			"buffer":0,
			"byteLength":122664,
			"byteOffset":5713248,
			"target":34963
		},
		{
			"buffer":0,
			"byteLength":139536,
			"byteOffset":5835912,
			"target":34962
		},
		{
			"buffer":0,
			"byteLength":139536,
			"byteOffset":5975448,
			"target":34962
		},
		{
			"buffer":0,
			"byteLength":37104,
			"byteOffset":6114984,
			"target":34963
		},
		{
			"buffer":0,
			"byteLength":7800,
			"byteOffset":6152088,
			"target":34962
		},
		{
			"buffer":0,
			"byteLength":7800,
			"byteOffset":6159888,
			"target":34962
		},
		{
			"buffer":0,
			"byteLength":1728,
			"byteOffset":6167688,
			"target":34963
		}
	],
	"buffers":[
		{
			"byteLength":6169416,
			"uri":"mera-heart.bin"
		}
	]
}
