{
	"asset":{
		"generator":"Khronos glTF Blender I/O v5.2.40",
		"version":"2.0"
	},
	"scene":0,
	"scenes":[
		{
			"name":"Scene",
			"nodes":[
				0,
				1,
				2,
				3,
				4
			]
		}
	],
	"nodes":[
		{
			"mesh":0,
			"name":"STL-blue",
			"scale":[
				0.0010000000474974513,
				0.0010000000474974513,
				0.0010000000474974513
			],
			"translation":[
				-0.2726109027862549,
				1.2239331007003784,
				0.10380533337593079
			]
		},
		{
			"mesh":1,
			"name":"STL-greyD",
			"scale":[
				0.0010000000474974513,
				0.0010000000474974513,
				0.0010000000474974513
			],
			"translation":[
				-0.44164398312568665,
				0,
				0.9663164019584656
			]
		},
		{
			"mesh":2,
			"name":"STL-greyL",
			"scale":[
				0.0010000000474974513,
				0.0010000000474974513,
				0.0010000000474974513
			],
			"translation":[
				-0.44324836134910583,
				0.015334873460233212,
				0.93925940990448
			]
		},
		{
			"mesh":3,
			"name":"STL-orange",
			"scale":[
				0.0010000000474974513,
				0.0010000000474974513,
				0.0010000000474974513
			],
			"translation":[
				0.4515596926212311,
				1.6933066844940186,
				0.7924688458442688
			]
		},
		{
			"mesh":4,
			"name":"STL-white",
			"scale":[
				0.0010000000474974513,
				0.0010000000474974513,
				0.0010000000474974513
			],
			"translation":[
				-0.3635069727897644,
				1.1615017652511597,
				1.155624270439148
			]
		}
	],
	"materials":[
		{
			"doubleSided":true,
			"name":"blue",
			"pbrMetallicRoughness":{
				"baseColorFactor":[
					0,
					0.008692539297044277,
					0.8000074625015259,
					1
				],
				"metallicFactor":0,
				"roughnessFactor":0.5
			}
		},
		{
			"doubleSided":true,
			"name":"greyD",
			"pbrMetallicRoughness":{
				"baseColorFactor":[
					0.026980027556419373,
					0.026980027556419373,
					0.026980027556419373,
					1
				],
				"metallicFactor":0,
				"roughnessFactor":0.5
			}
		},
		{
			"doubleSided":true,
			"name":"greyL",
			"pbrMetallicRoughness":{
				"baseColorFactor":[
					0.27205851674079895,
					0.27205851674079895,
					0.27205851674079895,
					1
				],
				"metallicFactor":0,
				"roughnessFactor":0.5
			}
		},
		{
			"doubleSided":true,
			"name":"orange",
			"pbrMetallicRoughness":{
				"baseColorFactor":[
					0.8000074625015259,
					0.36263012886047363,
					0.012055102735757828,
					1
				],
				"metallicFactor":0,
				"roughnessFactor":0.5
			}
		},
		{
			"doubleSided":true,
			"name":"white",
			"pbrMetallicRoughness":{
				"baseColorFactor":[
					0.6997495889663696,
					0.6997495889663696,
					0.6997495889663696,
					1
				],
				"metallicFactor":0,
				"roughnessFactor":0.5
			}
		}
	],
	"meshes":[
		{
			"name":"STL-blue",
			"primitives":[
				{
					"attributes":{
						"POSITION":0,
						"NORMAL":1
					},
					"indices":2,
					"material":0
				}
			]
		},
		{
			"name":"STL-greyD",
			"primitives":[
				{
					"attributes":{
						"POSITION":3,
						"NORMAL":4
					},
					"indices":5,
					"material":1
				}
			]
		},
		{
			"name":"STL-greyL",
			"primitives":[
				{
					"attributes":{
						"POSITION":6,
						"NORMAL":7
					},
					"indices":8,
					"material":2
				}
			]
		},
		{
			"name":"STL-orange",
			"primitives":[
				{
					"attributes":{
						"POSITION":9,
						"NORMAL":10
					},
					"indices":11,
					"material":3
				}
			]
		},
		{
			"name":"STL-white",
			"primitives":[
				{
					"attributes":{
						"POSITION":12,
						"NORMAL":13
					},
					"indices":14,
					"material":4
				}
			]
		}
	],
	"accessors":[
		{
			"bufferView":0,
			"componentType":5126,
			"count":632,
			"max":[
				15.989562034606934,
				241.29025268554688,
				-9.999999974752427e-07
			],
			"min":[
				9.999999974752427e-07,
				1.0000001111620804e-06,
				-210
			],
			"type":"VEC3"
		},
		{
			"bufferView":1,
			"componentType":5126,
			"count":632,
			"type":"VEC3"
		},
		{
			"bufferView":2,
			"componentType":5123,
			"count":1188,
			"type":"SCALAR"
		},
		{
			"bufferView":3,
			"componentType":5126,
			"count":32650,
			"max":[
				1458.40576171875,
				1867.5196533203125,
				-0.016744038090109825
			],
			"min":[
				9.999999974752427e-07,
				1.0000001111620804e-06,
				-1354.9293212890625
			],
			"type":"VEC3"
		},
		{
			"bufferView":4,
			"componentType":5126,
			"count":32650,
			"type":"VEC3"
		},
		{
			"bufferView":5,
			"componentType":5123,
			"count":41310,
			"type":"SCALAR"
		},
		{
			"bufferView":6,
			"componentType":5126,
			"count":40959,
			"max":[
				1445.417236328125,
				1865,
				-9.999999974752427e-07
			],
			"min":[
				0.013288955204188824,
				1.0000001111620804e-06,
				-1328.9080810546875
			],
			"type":"VEC3"
		},
		{
			"bufferView":7,
			"componentType":5126,
			"count":40959,
			"type":"VEC3"
		},
		{
			"bufferView":8,
			"componentType":5123,
			"count":50682,
			"type":"SCALAR"
		},
		{
			"bufferView":9,
			"componentType":5126,
			"count":1872,
			"max":[
				326.60003662109375,
				62.534481048583984,
				-1.157347559928894
			],
			"min":[
				233.92013549804688,
				16.211395263671875,
				-107.0389175415039
			],
			"type":"VEC3"
		},
		{
			"bufferView":10,
			"componentType":5126,
			"count":1872,
			"type":"VEC3"
		},
		{
			"bufferView":11,
			"componentType":5123,
			"count":2424,
			"type":"SCALAR"
		},
		{
			"bufferView":12,
			"componentType":5126,
			"count":7256,
			"max":[
				1167.525634765625,
				718.549560546875,
				-248.89022827148438
			],
			"min":[
				79.03934478759766,
				0.04993334040045738,
				-1426.0181884765625
			],
			"type":"VEC3"
		},
		{
			"bufferView":13,
			"componentType":5126,
			"count":7256,
			"type":"VEC3"
		},
		{
			"bufferView":14,
			"componentType":5123,
			"count":8598,
			"type":"SCALAR"
		}
	],
	"bufferViews":[
		{
			"buffer":0,
			"byteLength":7584,
			"byteOffset":0,
			"target":34962
		},
		{
			"buffer":0,
			"byteLength":7584,
			"byteOffset":7584,
			"target":34962
		},
		{
			"buffer":0,
			"byteLength":2376,
			"byteOffset":15168,
			"target":34963
		},
		{
			"buffer":0,
			"byteLength":391800,
			"byteOffset":17544,
			"target":34962
		},
		{
			"buffer":0,
			"byteLength":391800,
			"byteOffset":409344,
			"target":34962
		},
		{
			"buffer":0,
			"byteLength":82620,
			"byteOffset":801144,
			"target":34963
		},
		{
			"buffer":0,
			"byteLength":491508,
			"byteOffset":883764,
			"target":34962
		},
		{
			"buffer":0,
			"byteLength":491508,
			"byteOffset":1375272,
			"target":34962
		},
		{
			"buffer":0,
			"byteLength":101364,
			"byteOffset":1866780,
			"target":34963
		},
		{
			"buffer":0,
			"byteLength":22464,
			"byteOffset":1968144,
			"target":34962
		},
		{
			"buffer":0,
			"byteLength":22464,
			"byteOffset":1990608,
			"target":34962
		},
		{
			"buffer":0,
			"byteLength":4848,
			"byteOffset":2013072,
			"target":34963
		},
		{
			"buffer":0,
			"byteLength":87072,
			"byteOffset":2017920,
			"target":34962
		},
		{
			"buffer":0,
			"byteLength":87072,
			"byteOffset":2104992,
			"target":34962
		},
		{
			"buffer":0,
			"byteLength":17196,
			"byteOffset":2192064,
			"target":34963
		}
	],
	"buffers":[
		{
			"byteLength":2209260,
			"uri":"zeiss-eye.bin"
		}
	]
}
